<svg id="Capa_1" enable-background="new 0 0 495.423 495.423" height="512" viewBox="0 0 495.423 495.423" width="512" xmlns="http://www.w3.org/2000/svg"><g><g><path d="m452.271 223.906c-1.049-10.253-2.889-20.531-5.548-30.751-.865-3.324.025-6.858 2.374-9.364l24.409-26.029c3.015-3.215 3.569-8.024 1.366-11.841l-28.738-49.775c-2.204-3.817-6.647-5.741-10.938-4.737l-34.998 8.187c-3.317.776-6.795-.198-9.241-2.57-7.524-7.3-15.566-13.979-24.037-20.008-2.798-1.992-4.388-5.27-4.199-8.7l1.971-35.629c.243-4.401-2.423-8.442-6.565-9.95l-54.011-19.651c-4.141-1.507-8.781-.125-11.423 3.401l-21.552 28.768c-2.047 2.732-5.344 4.221-8.749 3.969-10.337-.764-20.793-.742-31.284.095-3.423.273-6.747-1.217-8.806-3.965l-21.369-28.525c-2.643-3.528-7.283-4.909-11.425-3.401l-41.475 15.1-12.535 4.562c-4.142 1.507-6.808 5.548-6.565 9.949l1.984 35.889c.188 3.406-1.379 6.666-4.146 8.661-8.54 6.156-16.523 12.91-23.913 20.183-2.448 2.409-5.951 3.405-9.295 2.623l-34.703-8.117c-4.291-1.004-8.734.92-10.938 4.737l-28.738 49.775c-2.204 3.817-1.649 8.626 1.366 11.841l24.625 26.257c2.336 2.491 3.229 5.998 2.389 9.308-2.557 10.072-4.363 20.362-5.376 30.792-.332 3.418-2.381 6.429-5.447 7.974l-31.24 15.742c-3.912 1.971-6.086 6.259-5.363 10.579l9.521 56.957c.732 4.379 4.264 7.752 8.673 8.28l35.668 4.277c3.389.406 6.33 2.519 7.812 5.594 4.591 9.52 9.845 18.55 15.684 27.058 1.941 2.828 2.311 6.445.962 9.599l-14.016 32.758c-1.734 4.052-.611 8.76 2.765 11.593l44.02 36.947c3.376 2.834 8.21 3.123 11.899.711l30.153-19.705c2.856-1.866 6.463-2.139 9.575-.74 9.502 4.271 19.326 7.834 29.389 10.632 3.303.918 5.912 3.453 6.904 6.735l10.325 34.135c1.276 4.219 5.164 7.105 9.572 7.105h57.475c4.408 0 8.296-2.886 9.572-7.105l8.391-27.745 2.034-6.711c.989-3.263 3.575-5.786 6.855-6.717 1.529-.434 3.056-.885 4.581-1.352l151.25-115.99 17.216-2.068c4.402-.529 7.931-3.893 8.668-8.265l9.608-56.962c.73-4.33-1.449-8.629-5.373-10.6l-31.597-15.868c-3.056-1.537-5.105-4.528-5.453-7.932zm-203.101 113.598c-52.193.968-94.698-41.538-93.73-93.73.912-49.188 41.049-89.325 90.237-90.237 52.193-.968 94.698 41.538 93.73 93.73-.912 49.188-41.049 89.325-90.237 90.237z" fill="#2b597f"/></g><path d="m247.923 103.02c-78.42 0-142 63.58-142 142s63.58 142 142 142c1.09 0 2.17-.01 3.25-.04 76.62-1.72 138.27-64.14 138.75-141.05v-.91c0-78.42-63.58-142-142-142zm6.59 222.73c-2.17.18-4.37.27-6.59.27-44.74 0-81-36.26-81-81s36.26-81 81-81 81 36.26 81 81c0 1.78-.06 3.55-.18 5.3-2.58 40.09-34.32 72.22-74.23 75.43z" fill="#f5f5f5"/><path d="m125.923 245.02c0-75.06 58.24-136.52 132-141.65-3.3-.23-6.64-.35-10-.35-78.42 0-142 63.58-142 142s63.58 142 142 142c1.09 0 2.17-.01 3.25-.04 2.25-.05 4.49-.15 6.71-.31-73.74-5.15-131.96-66.61-131.96-141.65z" fill="#e6e6e6"/><path d="m423.688 439.949 19.8-19.8 47.65 48.368c5.666 5.557 5.72 14.659.121 20.258-5.556 5.556-14.573 5.552-20.148-.01z" fill="#6b96ae"/><path d="m442.795 419.425-19.989 19.584 25.437 26.215 19.776-20.174z" fill="#2b597f"/><path d="m306.163 301.3v73.26c-16.84 7.58-35.43 11.98-54.99 12.42-1.65-7.85-2.51-15.99-2.51-24.32 0-12.61 1.96-25.02 5.85-36.91 20.23-1.63 38.36-10.68 51.65-24.45z" fill="#e6e6e6"/><path d="m268.664 362.659c0-11.513 1.968-22.567 5.586-32.843 13.54-38.456 50.189-66.019 93.275-66.019 54.6 0 98.861 44.262 98.861 98.861s-44.262 98.861-98.861 98.861-98.861-44.261-98.861-98.86z" fill="#50758d"/><path d="m437.813 362.66c0 12.65-3.35 24.52-9.21 34.78-.45.79-.91 1.56-1.39 2.33-12.39 19.92-34.49 33.18-59.69 33.18-38.82 0-70.28-31.47-70.28-70.29 0-8.19 1.39-16.05 3.97-23.35 3.56-10.12 9.38-19.18 16.84-26.58 1.28-1.27 2.61-2.49 3.98-3.65 12.26-10.43 28.14-16.71 45.49-16.71 38.82 0 70.29 31.47 70.29 70.29z" fill="#27bdf3"/><path d="m437.813 362.66c0 12.65-3.35 24.52-9.21 34.78-12.26 10.45-28.15 16.74-45.51 16.74-38.81 0-70.28-31.47-70.28-70.29 0-8.18 1.4-16.04 3.97-23.35 1.41-4 3.17-7.83 5.25-11.46 12.26-10.43 28.14-16.71 45.49-16.71 38.82 0 70.29 31.47 70.29 70.29z" fill="#2edffc"/></g></svg>