<svg id="Capa_1" enable-background="new 0 0 512 512" height="512" viewBox="0 0 512 512" width="512" xmlns="http://www.w3.org/2000/svg"><g><path d="m399.76 191.068c-1.453 26.548-9.56 52.642-24.148 74.853l-35.5 54.074h-168.228l-35.5-54.074c-14.443-21.984-22.53-47.77-24.096-74.039-.474-7.922-.361-15.906.361-23.828 1.741-19.337 7.046-38.395 15.968-55.856l22.015-43.092c21.86-42.795 61.985-69.106 105.366-69.106 21.696 0 42.567 6.573 60.75 18.502 18.193 11.929 33.687 29.206 44.617 50.602l22.015 43.092c8.808 17.235 14.083 36.025 15.896 55.094.752 7.903.917 15.866.484 23.778z" fill="#548eb5"/><path d="m399.76 191.07-10.42-5.73c-6.25-3.44-12.51-6.64-18.78-9.59-12.35-5.85-24.7-10.77-37.04-14.72-3.33-1.08-6.67-2.08-10-3.02-22.55-6.35-45.01-9.54-67.23-9.54-22.47 0-45.17 3.27-67.81 9.74-3.34.94-6.67 1.96-10 3.05-8 2.61-15.97 5.63-23.92 9.03-4.42 1.89-8.79 3.89-13.12 5.98h-.01c-6.33 3.06-12.57 6.31-18.7 9.75l-10.44 5.86c-.48-7.92-.36-15.9.36-23.83 1.74-19.33 7.04-38.39 15.97-55.85l22.01-43.1c21.86-42.79 61.99-69.1 105.37-69.1 21.69 0 42.57 6.57 60.75 18.5 18.19 11.93 33.68 29.21 44.62 50.6l22.01 43.1c8.81 17.23 14.08 36.02 15.9 55.09.75 7.9.91 15.87.48 23.78z" fill="#497090"/><path d="m323.517 138.182h25.515c11.89 0 21.528 9.638 21.528 21.528v19.131c0 11.89-9.638 21.528-21.528 21.528h-25.515z" fill="#ffcebf"/><path d="m178.479 121.993v94.067c0 39.544 32.057 71.601 71.601 71.601h11.835c39.544 0 71.601-32.057 71.601-71.601v-94.067c0-12.11-9.817-21.927-21.927-21.927h-111.183c-12.11 0-21.927 9.817-21.927 21.927z" fill="#ffeee6"/><g><path d="m271.998 183.727h-32c-4.267 0-7.726-3.459-7.726-7.726s3.459-7.726 7.726-7.726h32c4.268 0 7.726 3.459 7.726 7.726s-3.458 7.726-7.726 7.726z" fill="#497090"/></g><path d="m143.554 168.053c-3.091 34.192 4.935 69.249 23.735 97.867l35.5 54.074h-30.905l-35.5-54.074c-18.801-28.618-26.826-63.675-23.735-97.867 1.741-19.337 7.046-38.395 15.968-55.856l22.015-43.092c21.86-42.794 61.985-69.105 105.366-69.105 1.298 0 2.596.021 3.894.072.649.021 1.288.051 1.937.093.649.031 1.288.072 1.937.124.639.041 1.277.093 1.926.154.639.062 1.277.124 1.916.196.597.062 1.195.134 1.782.206.68.082 1.36.175 2.04.278-37.292 5.429-70.66 30.329-89.894 67.982l-22.015 43.092c-6.367 12.465-10.899 25.755-13.598 39.374-1.081 5.449-1.864 10.95-2.369 16.482z" fill="#497090"/><path d="m370.56 159.71v16.04c-12.35-5.85-24.7-10.77-37.04-14.72-3.33-1.08-6.67-2.08-10-3.02v-19.83h25.51c11.89 0 21.53 9.64 21.53 21.53z" fill="#ffb09e"/><path d="m188.479 138.182h-25.515c-11.89 0-21.528 9.638-21.528 21.528v19.131c0 11.89 9.638 21.528 21.528 21.528h25.515z" fill="#ffcebf"/><path d="m188.48 138.18v20.03c-3.34.94-6.67 1.96-10 3.05-8 2.61-15.97 5.63-23.92 9.03-4.42 1.89-8.79 3.89-13.12 5.98v-16.56c0-11.89 9.63-21.53 21.52-21.53z" fill="#ffb09e"/><path d="m271.451 287.019c-3.121.422-6.305.639-9.539.639h-11.826c-39.549 0-71.608-32.049-71.608-71.598v-94.066c0-12.115 9.818-21.933 21.933-21.933h30.905c-12.115 0-21.933 9.818-21.933 21.933v94.066c-.001 36.314 27.031 66.302 62.068 70.959z" fill="#ffdfcf"/><path d="m333.519 121.994v39.034c-25.899-8.355-51.725-12.558-77.233-12.558-25.775 0-51.859 4.296-77.81 12.795v-39.271c0-12.115 9.818-21.933 21.933-21.933h111.177c12.116 0 21.933 9.818 21.933 21.933z" fill="#ffdfcf"/><path d="m232.998 192h-47.519c-3.866 0-7-3.134-7-7v-18c0-3.866 3.134-7 7-7h47.519c3.866 0 7 3.134 7 7v18c0 3.866-3.134 7-7 7z" fill="#548eb5"/><path d="m209.382 159.997v32.008h-23.694c-3.976 0-7.211-3.235-7.211-7.211v-17.585c0-3.976 3.235-7.211 7.211-7.211h23.694z" fill="#497090"/><path d="m326.517 192h-47.519c-3.866 0-7-3.134-7-7v-18c0-3.866 3.134-7 7-7h47.519c3.866 0 7 3.134 7 7v18c0 3.866-3.134 7-7 7z" fill="#548eb5"/><path d="m399.28 167.29c-84.64-46.55-169.1-51.98-253.36-15.72-11.28 5.21-22.4 10.39-33.27 16.48 1.74-19.33 7.04-38.39 15.97-55.85l22.01-43.1c21.86-42.79 61.99-69.1 105.37-69.1 5.2 0 10.35.38 15.43 1.12 16.11 2.34 31.49 8.32 45.32 17.38 18.19 11.93 33.68 29.21 44.62 50.6l22.01 43.1c8.81 17.23 14.08 36.02 15.9 55.09z" fill="#98bce5"/><path d="m271.43 1.12c-37.29 5.43-70.66 30.33-89.89 67.98l-22.02 43.1c-6.36 12.46-10.9 25.75-13.6 39.37-11.28 5.21-22.4 10.39-33.27 16.48 1.74-19.33 7.04-38.39 15.97-55.85l22.01-43.1c21.86-42.79 61.99-69.1 105.37-69.1 5.2 0 10.35.38 15.43 1.12z" fill="#7bacdf"/><g><path d="m255.998 249.776c-14.945 0-27.103-12.158-27.103-27.103 0-4.267 3.459-7.726 7.726-7.726s7.726 3.459 7.726 7.726c0 6.424 5.226 11.65 11.65 11.65s11.65-5.226 11.65-11.65c0-4.267 3.459-7.726 7.726-7.726s7.726 3.459 7.726 7.726c.002 14.945-12.156 27.103-27.101 27.103z" fill="#f07281"/></g><path d="m64.003 490.003h383.99v-227.003c0-3.866-3.134-7-7-7h-369.99c-3.866 0-7 3.134-7 7z" fill="#f5fcff"/><path d="m94.909 256v234.003h-30.906v-227.003c0-3.866 3.134-7 7-7z" fill="#d8ecfe"/><g><g><g><path d="m215.999 391.894h-32c-4.267 0-7.726-3.459-7.726-7.726s3.459-7.726 7.726-7.726h32c4.267 0 7.726 3.459 7.726 7.726s-3.459 7.726-7.726 7.726z" fill="#548eb5"/></g><g><path d="m188.463 439.894c-4.267 0-7.726-3.459-7.726-7.726 0-13.083 10.643-23.726 23.726-23.726h26.301c4.267 0 7.726 3.459 7.726 7.726s-3.459 7.726-7.726 7.726h-26.301c-4.562 0-8.274 3.712-8.274 8.274 0 4.267-3.459 7.726-7.726 7.726z" fill="#548eb5"/></g><g><path d="m220.462 359.725h-15.999c-13.083 0-23.726-10.643-23.726-23.726 0-4.267 3.459-7.726 7.726-7.726s7.726 3.459 7.726 7.726c0 4.562 3.712 8.273 8.274 8.273h15.999c4.267 0 7.726 3.459 7.726 7.726s-3.458 7.727-7.726 7.727z" fill="#548eb5"/></g><g><path d="m327.997 391.894h-31.999c-4.268 0-7.726-3.459-7.726-7.726s3.459-7.726 7.726-7.726h31.999c4.268 0 7.726 3.459 7.726 7.726.001 4.267-3.458 7.726-7.726 7.726z" fill="#548eb5"/></g><g><path d="m323.533 439.894c-4.268 0-7.726-3.459-7.726-7.726 0-4.562-3.711-8.274-8.274-8.274h-26.302c-4.268 0-7.726-3.459-7.726-7.726s3.459-7.726 7.726-7.726h26.302c13.082 0 23.726 10.643 23.726 23.726.001 4.267-3.458 7.726-7.726 7.726z" fill="#548eb5"/></g><g><path d="m307.533 359.725h-16c-4.268 0-7.726-3.459-7.726-7.726s3.459-7.726 7.726-7.726h16c4.562 0 8.274-3.711 8.274-8.273 0-4.267 3.459-7.726 7.726-7.726s7.726 3.459 7.726 7.726c.001 13.082-10.643 23.725-23.726 23.725z" fill="#548eb5"/></g><g><path d="m255.998 343.895c-21.905 0-39.726-17.821-39.726-39.726v-.339c0-4.267 3.459-7.726 7.726-7.726s7.726 3.459 7.726 7.726v.339c0 13.384 10.889 24.273 24.273 24.273s24.274-10.889 24.274-24.273v-.339c0-4.267 3.459-7.726 7.726-7.726 4.268 0 7.726 3.459 7.726 7.726v.339c.002 21.905-17.819 39.726-39.725 39.726z" fill="#548eb5"/></g></g></g><path d="m264.998 432.168h-17.999c-17.121 0-31-13.879-31-31v-33.999c0-17.121 13.879-31 31-31h17.999c17.121 0 31 13.879 31 31v33.999c0 17.121-13.879 31-31 31z" fill="#f07281"/><path d="m295.998 360.378h-79.999c-4.267 0-7.726 3.459-7.726 7.726s3.459 7.726 7.726 7.726h32.274v56.338c0 4.267 3.459 7.726 7.726 7.726s7.726-3.459 7.726-7.726l.001-56.338h32.273c4.268 0 7.726-3.459 7.726-7.726s-3.459-7.726-7.727-7.726z" fill="#f5fcff"/><path d="m463.997 511.998h-415.994v-25c0-3.866 3.134-7 7-7h401.993c3.866 0 7 3.134 7 7v25z" fill="#548eb5"/><path d="m78.91 480.003v31.997h-30.905v-24.997c0-3.866 3.134-7 7-7z" fill="#497090"/></g></svg>