<svg height="512pt" viewBox="0 0 512 512" width="512pt" xmlns="http://www.w3.org/2000/svg" xmlns:xlink="http://www.w3.org/1999/xlink"><linearGradient id="a" gradientUnits="userSpaceOnUse" x1="256" x2="256" y1="0" y2="512"><stop offset="0" stop-color="#2af598"/><stop offset="1" stop-color="#009efd"/></linearGradient><path d="m286.628906 432h-61.257812l-15.238282-57.289062c-11.765624-3.402344-23.105468-8.121094-33.902343-14.109376l-50.886719 29.296876-43.242188-43.242188 29.296876-50.886719c-5.988282-10.796875-10.707032-22.136719-14.109376-33.902343l-57.289062-15.238282v-61.257812l57.289062-15.238282c3.402344-11.765624 8.121094-23.105468 14.109376-33.902343l-29.296876-50.882813 43.242188-43.246094 50.890625 29.296876c10.796875-5.988282 22.132813-10.707032 33.898437-14.109376l15.238282-57.289062h61.257812l15.238282 57.289062c11.765624 3.402344 23.101562 8.121094 33.898437 14.109376l50.890625-29.296876 43.242188 43.246094-29.296876 50.886719c5.988282 10.796875 10.707032 22.132813 14.109376 33.902344l57.289062 15.234375v61.257812l-57.289062 15.238282c-3.402344 11.765624-8.121094 23.101562-14.109376 33.898437l29.296876 50.886719-43.246094 43.246094-50.886719-29.296876c-10.796875 5.988282-22.132813 10.707032-33.902344 14.109376zm-109.472656-118.085938 10.289062 6.753907c13.273438 8.714843 27.753907 14.738281 43.035157 17.902343l12.097656 2.503907 13.421875 50.457031 13.421875-50.457031 12.097656-2.503907c15.28125-3.164062 29.761719-9.1875 43.035157-17.902343l10.289062-6.753907 44.949219 25.878907-25.878907-44.949219 6.753907-10.289062c8.714843-13.273438 14.738281-27.75 17.902343-43.035157l2.503907-12.097656 50.457031-13.421875-50.457031-13.421875-2.503907-12.097656c-3.164062-15.28125-9.1875-29.761719-17.898437-43.035157l-6.757813-10.289062 25.878907-44.949219-44.949219 25.878907-10.289062-6.757813c-13.273438-8.714844-27.75-14.734375-43.035157-17.898437l-12.097656-2.503907-13.421875-50.457031-13.421875 50.457031-12.097656 2.503907c-15.285157 3.164062-29.761719 9.1875-43.035157 17.902343l-10.289062 6.753907-44.949219-25.878907 25.878907 44.949219-6.757813 10.289062c-8.714844 13.273438-14.734375 27.753907-17.898437 43.035157l-2.503907 12.097656-50.457031 13.421875 50.457031 13.421875 2.503907 12.097656c3.164062 15.285157 9.1875 29.761719 17.902343 43.035157l6.753907 10.289062-25.878907 44.949219zm274.84375-82.664062h.011719zm60 220.75v-77h-40v77c0 11.027344-8.972656 20-20 20h-392c-11.027344 0-20-8.972656-20-20v-77h-40v77c0 33.085938 26.914062 60 60 60h392c33.085938 0 60-26.914062 60-60zm-234.878906-315.878906h-40v119.757812h40zm52.144531 92.898437-28.285156-28.285156-44.859375 44.859375-44.855469-44.859375-28.285156 28.285156 73.140625 73.140625zm0 0" fill="url(#a)"/></svg>